<?xml version="1.0" standalone="no"?>
<!DOCTYPE svg PUBLIC "-//W3C//DTD SVG 20010904//EN"
 "http://www.w3.org/TR/2001/REC-SVG-20010904/DTD/svg10.dtd">
<svg version="1.0" xmlns="http://www.w3.org/2000/svg"
 width="1280.000000pt" height="903.000000pt" viewBox="0 0 1280.000000 903.000000"
 preserveAspectRatio="xMidYMid meet">
<g transform="translate(0.000000,903.000000) scale(0.100000,-0.100000)"
fill="#000000" stroke="none">
<path d="M5280 8965 c7 -8 19 -15 26 -15 8 0 14 7 14 15 0 10 -10 15 -26 15
-22 0 -25 -2 -14 -15z"/>
<path d="M5105 8900 c-10 -11 -26 -22 -36 -25 -10 -3 -19 -16 -21 -28 -3 -21
-8 -22 -70 -19 -60 2 -68 0 -68 -16 0 -28 -29 -62 -54 -62 -42 0 -76 -23 -76
-51 0 -31 -21 -52 -42 -44 -26 10 -60 66 -65 106 -6 41 -12 46 -31 27 -16 -16
-15 -8 4 48 18 55 7 79 -24 51 -10 -9 -26 -17 -35 -17 -23 0 -21 -26 3 -52 20
-22 50 -106 43 -120 -2 -5 -12 -8 -22 -8 -14 0 -20 10 -25 43 -4 24 -4 50 -1
59 7 18 -34 33 -49 18 -7 -7 -4 -10 7 -10 19 0 23 -30 6 -47 -13 -13 -64 5
-109 38 -18 14 -42 20 -71 20 -71 -1 -94 -4 -100 -14 -7 -10 -40 -11 -86 -1
-33 6 -33 6 -33 -33 0 -48 -14 -63 -58 -63 -21 0 -40 -7 -47 -17 -16 -21 -45
-10 -45 16 0 14 9 23 26 27 18 5 22 10 15 17 -6 6 -11 24 -11 39 0 16 -6 31
-13 34 -21 8 -120 -34 -139 -59 -24 -30 -22 -42 8 -55 14 -7 22 -17 19 -22 -9
-15 -41 -12 -55 4 -6 8 -24 16 -38 18 -21 2 -26 8 -24 25 2 12 -2 24 -7 27 -6
4 -8 13 -4 21 4 11 -2 15 -21 15 -40 0 -92 -33 -80 -51 2 -5 -8 -7 -23 -6 -25
2 -28 -1 -28 -30 -1 -18 -4 -35 -7 -39 -11 -10 -28 6 -28 26 0 27 -14 32 -47
15 -45 -22 -133 -37 -148 -25 -9 7 -21 7 -39 -1 -31 -15 -33 -25 -6 -34 11 -3
20 -11 20 -16 0 -6 14 -15 30 -20 35 -13 39 -24 10 -32 -26 -7 -26 -27 -1 -27
20 0 81 -45 81 -60 0 -4 -13 -10 -28 -13 -16 -3 -47 -24 -70 -46 -23 -23 -51
-41 -61 -41 -13 0 -20 -9 -24 -32 -2 -18 -1 -34 4 -36 15 -6 10 -32 -6 -32 -8
0 -15 5 -15 10 0 7 -13 8 -34 5 -29 -6 -35 -4 -41 14 -9 30 1 40 46 47 23 4
39 12 39 20 0 14 -23 21 -79 22 -19 1 -41 8 -49 16 -15 15 -16 13 35 54 20 16
21 21 12 72 -11 59 -38 102 -40 65 -3 -56 -5 -60 -26 -63 -16 -2 -23 2 -23 12
0 12 -11 16 -46 16 -25 0 -61 8 -82 19 -20 11 -54 27 -75 36 -21 9 -41 23 -44
31 -8 23 -53 18 -53 -6 0 -11 -7 -20 -15 -20 -10 0 -15 7 -13 18 4 25 -84 42
-109 20 -10 -9 -28 -19 -41 -22 -12 -4 -27 -16 -32 -27 -13 -22 -50 -26 -50
-4 0 8 -5 15 -10 15 -6 0 -30 9 -53 20 -35 17 -46 19 -65 9 -16 -9 -25 -10
-33 -2 -7 7 -22 8 -40 3 -31 -9 -40 5 -18 27 9 9 6 10 -10 6 -12 -3 -29 -19
-37 -35 -8 -16 -30 -36 -49 -45 -31 -15 -36 -15 -52 -1 -10 8 -26 18 -36 21
-21 8 -22 21 -2 37 19 16 19 30 0 30 -8 0 -23 9 -32 20 -10 11 -28 20 -41 20
l-23 0 22 -31 c28 -39 15 -52 -36 -37 -57 17 -68 27 -61 60 5 26 3 28 -24 28
-16 0 -41 5 -55 12 -19 9 -28 9 -33 1 -5 -9 -18 -9 -49 0 -51 13 -67 2 -33
-23 19 -14 22 -22 14 -30 -9 -9 -17 -9 -32 -1 -30 16 -34 14 -27 -17 5 -25 2
-29 -27 -39 -18 -7 -45 -9 -60 -6 -21 4 -29 0 -41 -22 -9 -19 -16 -24 -21 -16
-16 25 3 59 43 74 43 17 63 63 33 75 -24 9 -92 -75 -92 -114 0 -34 -15 -54
-42 -54 -9 0 -22 -9 -28 -20 -6 -11 -16 -20 -23 -20 -7 0 -18 -9 -25 -21 -7
-11 -29 -27 -48 -35 -18 -8 -34 -20 -34 -27 0 -7 -9 -20 -20 -30 -11 -9 -20
-24 -20 -32 0 -10 -9 -15 -26 -15 -27 0 -28 6 -9 53 12 30 -22 20 -45 -14 -22
-30 -22 -30 -41 -10 -11 11 -19 27 -19 36 0 23 -18 18 -26 -7 -4 -13 -13 -27
-20 -33 -8 -5 -22 -26 -32 -44 -21 -40 -42 -52 -42 -24 0 12 -16 26 -49 41
-27 12 -54 22 -60 22 -6 0 -16 11 -23 24 -10 23 -12 24 -34 9 -40 -26 -26 -53
27 -53 27 0 23 -19 -7 -30 -35 -14 -35 -14 -69 19 -38 35 -60 47 -107 55 -24
4 -38 3 -38 -4 0 -5 -6 -10 -14 -10 -16 0 -29 31 -30 69 -1 32 -30 50 -53 33
-10 -7 -26 -15 -35 -18 -9 -3 -20 -20 -23 -36 -5 -22 -10 -27 -18 -19 -23 23
-40 12 -34 -23 3 -19 0 -39 -6 -45 -8 -8 -8 -14 0 -22 7 -7 9 -24 6 -39 -3
-15 0 -31 6 -34 6 -4 11 -16 11 -27 0 -13 -7 -19 -24 -19 -44 0 -38 -40 9 -66
12 -7 21 -24 23 -43 3 -29 0 -34 -37 -49 -22 -9 -45 -27 -50 -39 -6 -13 -17
-23 -26 -23 -18 0 -19 -11 -4 -44 11 -23 8 -28 -20 -55 -40 -38 -41 -67 -1
-76 28 -6 43 -25 20 -25 -5 0 -10 -11 -10 -25 0 -16 -7 -28 -17 -31 -33 -10
-48 -21 -48 -35 0 -15 2 -15 52 -6 31 6 31 6 30 -31 -1 -20 -10 -45 -19 -54
-10 -10 -18 -26 -18 -36 0 -10 -5 -23 -11 -29 -8 -8 -7 -13 1 -18 7 -4 16 -1
21 6 7 12 9 11 9 -2 0 -8 -4 -19 -9 -25 -4 -5 -14 -31 -20 -58 -9 -38 -9 -51
0 -56 8 -6 8 -13 1 -26 -8 -14 -6 -25 7 -44 30 -44 49 -107 46 -154 -3 -47 0
-52 24 -37 13 9 12 36 -4 74 -5 12 -3 17 8 17 9 0 25 12 37 27 18 23 30 27 80
30 57 3 60 3 60 -20 0 -13 -9 -32 -20 -42 -11 -10 -20 -30 -20 -45 0 -15 -10
-40 -22 -55 -20 -25 -20 -28 -4 -37 11 -6 15 -16 11 -28 -3 -10 0 -28 7 -39
11 -17 10 -23 -5 -38 -13 -13 -19 -14 -29 -5 -7 7 -20 12 -30 12 -10 0 -18 5
-18 10 0 6 5 10 10 10 6 0 10 5 10 10 0 20 -57 10 -98 -17 -37 -24 -42 -32
-40 -58 3 -28 6 -30 45 -30 57 0 67 -13 43 -53 -20 -32 -30 -36 -82 -32 -46 3
-66 -9 -79 -47 -10 -30 -9 -37 4 -44 9 -6 13 -17 10 -29 -4 -13 0 -20 9 -20 8
0 24 -13 36 -30 29 -38 51 -39 49 -3 -1 19 3 28 15 31 12 2 18 -3 18 -16 0
-20 25 -36 41 -26 14 8 11 54 -4 54 -15 0 -49 76 -45 99 6 28 88 26 88 -2 0
-15 44 -57 59 -57 13 0 30 -31 24 -46 -3 -11 43 -57 66 -66 5 -1 11 -25 12
-53 4 -47 2 -50 -21 -54 -14 -1 -28 -8 -31 -13 -4 -6 -26 -12 -50 -14 -24 -3
-47 -10 -51 -17 -15 -23 -8 -27 17 -11 13 8 29 13 35 9 20 -12 9 -35 -30 -61
-34 -22 -40 -32 -40 -61 0 -22 8 -42 24 -58 22 -22 27 -23 64 -12 22 7 44 16
48 20 13 12 34 8 34 -8 0 -8 -4 -15 -10 -15 -5 0 -10 -7 -10 -16 0 -23 -29
-43 -62 -44 -31 0 -36 -11 -13 -30 21 -17 14 -33 -16 -40 -15 -4 -25 -14 -27
-28 -2 -12 -8 -22 -13 -22 -5 0 -8 -15 -7 -32 2 -24 -1 -33 -13 -33 -17 0 -69
-56 -69 -73 0 -6 9 -13 19 -17 24 -7 34 -53 13 -64 -8 -5 -12 -13 -8 -19 4 -7
17 -6 41 4 19 8 39 14 45 14 17 0 11 -38 -7 -49 -17 -9 -17 -10 0 -16 9 -4 17
-15 17 -24 0 -9 5 -22 12 -29 9 -9 9 -17 0 -34 -6 -13 -14 -33 -17 -46 -6 -19
-9 -21 -22 -10 -10 8 -13 23 -9 46 4 28 2 33 -10 28 -9 -3 -28 -6 -44 -6 -22
0 -32 -7 -44 -32 -11 -21 -13 -35 -6 -42 14 -14 12 -26 -5 -26 -20 0 -19 -7 4
-55 11 -22 22 -47 25 -57 2 -9 30 -33 61 -53 69 -46 94 -88 110 -187 6 -35 10
-39 51 -49 24 -6 47 -16 50 -21 20 -32 -85 -62 -121 -35 -17 13 -17 17 -5 32
12 15 11 23 -12 69 -34 68 -46 97 -50 121 -2 13 -15 22 -41 28 -42 10 -62 1
-34 -15 14 -7 17 -17 11 -41 -3 -18 -10 -36 -14 -42 -15 -18 -14 -60 0 -92 14
-32 42 -44 55 -23 3 6 13 10 22 10 12 0 14 -9 9 -47 -4 -27 -6 -65 -6 -87 0
-21 -2 -47 -6 -58 -8 -26 -49 -41 -75 -28 -10 6 -19 7 -19 2 0 -5 11 -14 24
-20 16 -7 25 -20 25 -34 1 -67 -1 -82 -14 -101 -22 -31 -18 -46 13 -58 l27
-11 -22 -18 c-20 -15 -21 -20 -8 -30 19 -16 19 -30 -2 -45 -9 -7 -13 -17 -9
-24 6 -9 11 -9 22 0 21 17 31 2 15 -23 -18 -30 4 -51 25 -23 14 19 14 31 -3
103 -9 39 30 24 42 -16 6 -21 15 -32 27 -32 28 0 34 -30 11 -49 -11 -9 -23
-24 -27 -35 -5 -14 -13 -17 -35 -13 -37 8 -57 -25 -42 -66 8 -21 5 -37 -15
-83 -15 -33 -23 -67 -20 -80 3 -13 0 -27 -8 -33 -23 -19 -32 -92 -13 -106 10
-7 15 -24 14 -41 -3 -38 23 -39 41 -1 13 26 15 27 31 13 24 -22 58 -20 78 4
23 26 33 25 67 -10 24 -24 28 -37 30 -87 l1 -58 34 -3 c32 -3 69 -33 71 -57 1
-18 55 -72 78 -80 37 -11 19 -30 -32 -33 -39 -3 -54 -9 -77 -35 -16 -17 -29
-37 -29 -44 0 -7 -11 -13 -24 -13 -28 0 -40 -38 -25 -78 13 -35 11 -62 -5 -62
-27 0 -28 -21 -1 -55 14 -20 23 -40 19 -47 -5 -7 -11 -5 -21 8 -22 30 -47 6
-51 -47 -5 -77 -3 -84 18 -98 25 -17 27 -72 4 -96 -22 -22 -40 -14 -36 16 2
20 -5 28 -42 46 l-44 22 -6 -22 c-3 -12 -6 -36 -6 -54 0 -17 -5 -35 -10 -38
-19 -12 -10 -24 22 -27 36 -3 48 -23 20 -32 -16 -6 -19 -13 -15 -50 5 -40 3
-46 -26 -67 -17 -12 -31 -29 -31 -36 0 -8 -12 -25 -27 -39 -25 -23 -25 -25 -9
-43 17 -18 17 -20 -2 -39 -23 -23 -40 -166 -19 -159 8 2 12 27 12 67 0 36 5
65 11 67 22 7 46 -35 47 -87 1 -29 8 -54 15 -59 9 -6 11 -19 7 -43 -4 -22 -3
-38 4 -42 20 -13 11 -34 -16 -41 -19 -4 -31 -2 -39 9 -14 20 -28 20 -44 0 -12
-13 -16 -12 -36 13 l-23 28 -1 -24 0 -25 -29 28 -30 28 -7 -37 c-4 -24 -2 -45
5 -56 16 -27 14 -37 -11 -41 -21 -3 -23 -9 -25 -65 -2 -63 10 -84 21 -39 4 17
15 26 37 31 17 4 39 15 48 24 10 10 34 21 54 24 l37 6 -16 -37 c-9 -20 -17
-44 -18 -52 -8 -53 -15 -59 -79 -62 -60 -3 -62 -4 -72 -36 -5 -17 -13 -32 -17
-32 -17 0 -7 -21 14 -29 19 -7 22 -16 24 -67 1 -49 -2 -62 -19 -76 l-21 -16
30 -18 c42 -24 59 -70 39 -101 -15 -23 -15 -23 28 -23 79 0 122 -61 82 -114
-20 -26 -20 -76 0 -76 19 0 19 -5 -1 -34 -18 -28 -2 -46 22 -25 11 9 18 9 26
1 9 -9 6 -18 -12 -37 -27 -28 -48 -32 -56 -10 -5 11 -16 13 -45 9 -25 -4 -44
-2 -54 6 -9 7 -17 11 -19 9 -8 -10 -15 -132 -7 -124 5 6 11 23 13 40 4 40 35
47 44 10 5 -19 1 -32 -16 -50 -18 -19 -20 -29 -13 -51 12 -37 29 -41 37 -9 4
14 10 25 15 25 14 0 21 -42 10 -61 -9 -18 -3 -64 11 -84 4 -5 12 -36 19 -69
10 -46 10 -60 1 -66 -9 -6 -7 -13 9 -29 11 -11 25 -21 31 -21 18 0 10 -17 -15
-30 -22 -12 -25 -20 -25 -74 l0 -61 44 -24 c23 -13 48 -21 54 -17 6 4 23 -1
37 -10 23 -15 27 -15 50 0 13 9 33 16 43 16 11 0 25 7 32 15 16 19 44 19 59 1
14 -17 -9 -60 -42 -77 -15 -9 -18 -18 -14 -45 3 -19 2 -34 -3 -34 -4 0 -15
-19 -22 -42 -13 -39 -19 -45 -63 -59 -27 -8 -52 -22 -55 -30 -4 -8 -12 -24
-18 -36 -7 -13 -12 -32 -12 -43 0 -11 -6 -20 -13 -20 -17 0 -47 -32 -47 -49 0
-20 30 -24 49 -7 17 15 20 15 50 -1 17 -10 31 -26 31 -35 0 -25 31 -23 37 2 3
13 21 24 52 33 43 13 47 12 62 -6 16 -19 16 -19 24 4 4 13 7 29 6 35 -1 13 27
23 47 17 19 -7 14 -31 -8 -45 -25 -16 -25 -26 1 -47 19 -15 20 -20 8 -39 -11
-17 -11 -24 -1 -34 17 -17 15 -42 -8 -83 l-20 -35 25 -6 c22 -5 24 -11 22 -44
-3 -37 -2 -38 36 -44 22 -4 40 -5 41 -4 1 2 10 17 22 33 20 29 33 67 37 110 1
11 11 25 22 31 22 11 22 25 5 94 -10 39 -9 46 7 58 10 7 17 21 15 31 -1 9 7
26 18 36 13 12 20 31 20 57 0 37 -15 52 -26 24 -9 -25 -82 -76 -98 -70 -26 10
-18 27 29 63 25 18 45 37 45 42 0 5 7 9 15 9 19 0 19 14 0 30 -19 16 -10 26
32 35 27 5 37 1 71 -29 23 -21 50 -36 64 -36 38 0 78 -36 78 -71 0 -16 3 -29
8 -30 19 -2 260 1 287 3 26 3 30 0 30 -22 0 -14 3 -30 8 -37 4 -6 2 -23 -4
-37 -15 -32 -5 -56 22 -56 13 0 31 -8 42 -17 18 -17 19 -17 33 2 8 10 14 25
14 32 0 18 19 16 27 -3 3 -8 12 -13 19 -10 8 3 14 1 14 -4 0 -6 -4 -10 -9 -10
-5 0 -12 -9 -16 -20 -7 -21 30 -80 51 -80 6 0 14 -9 17 -20 4 -15 14 -20 40
-20 20 0 39 5 43 11 4 8 26 9 65 5 56 -5 59 -5 59 17 0 12 -5 40 -10 62 -12
49 -5 75 21 75 13 0 19 -7 19 -23 0 -13 6 -32 14 -42 13 -18 14 -17 31 8 24
37 45 35 45 -5 0 -18 4 -39 9 -47 11 -17 40 -7 47 16 3 10 12 31 20 47 13 26
13 30 -3 41 -24 18 -8 33 17 17 27 -17 51 -15 65 5 18 25 45 9 45 -27 0 -36
12 -38 34 -8 14 22 16 22 26 5 6 -9 15 -15 21 -12 15 10 10 61 -6 75 -22 19
-15 49 17 68 l27 16 75 -78 c78 -80 88 -99 60 -110 -22 -9 -24 -8 -24 9 0 8
-4 15 -9 15 -5 0 -16 3 -24 6 -10 3 -18 -2 -22 -16 -5 -16 1 -30 23 -54 16
-17 35 -41 41 -54 9 -16 21 -22 45 -22 34 0 34 0 23 30 -13 34 -6 46 20 35 10
-4 25 -9 33 -10 8 -2 25 -6 38 -9 21 -5 23 -2 20 27 -4 43 22 43 42 0 20 -42
30 -42 30 2 0 19 4 35 9 35 18 0 109 -50 114 -63 3 -6 6 0 6 14 2 45 21 52
118 44 49 -4 115 -12 148 -19 38 -8 72 -9 93 -4 25 7 40 5 58 -6 13 -9 27 -16
33 -16 18 0 21 33 6 56 -17 27 -16 28 18 15 21 -8 26 -6 36 15 9 20 16 23 38
18 16 -4 32 -11 38 -15 5 -5 19 -9 31 -9 12 0 32 -8 45 -18 13 -9 33 -22 44
-28 32 -18 59 -60 50 -81 -4 -10 -9 -26 -10 -36 -1 -11 -8 -23 -16 -27 -7 -5
-18 -26 -24 -46 -10 -38 -35 -59 -35 -29 0 9 -4 13 -10 10 -19 -12 9 -145 31
-145 5 0 9 20 9 44 0 25 5 48 11 52 6 3 9 18 6 32 -4 19 3 32 27 54 17 16 38
27 46 26 25 -5 22 -34 -5 -46 -32 -15 -32 -27 2 -56 33 -29 26 -61 -11 -52
-20 5 -26 1 -35 -26 -6 -17 -11 -32 -11 -34 0 -2 13 -10 29 -19 29 -14 31 -14
60 16 27 26 29 33 18 51 -9 16 -9 22 1 25 6 3 12 11 12 18 0 16 27 28 35 15 4
-6 18 -10 33 -10 15 0 38 -7 51 -16 19 -14 25 -14 32 -3 5 8 6 28 4 44 -3 17
-1 36 4 44 8 12 17 8 50 -22 30 -27 50 -37 75 -37 19 0 36 5 38 12 3 9 14 7
40 -5 20 -9 40 -17 45 -17 10 0 45 62 42 76 -5 28 2 36 29 30 15 -4 62 -6 106
-6 57 1 83 -3 95 -14 9 -9 32 -16 50 -18 17 -1 37 -8 43 -15 6 -7 19 -13 30
-13 16 0 19 -5 13 -29 -5 -23 -2 -30 13 -35 28 -9 52 3 52 26 0 18 4 19 37 13
21 -4 41 -9 45 -11 17 -10 7 -23 -19 -26 l-28 -3 24 -14 c17 -9 29 -10 45 -3
40 19 70 22 87 6 15 -13 20 -12 49 12 31 27 32 27 61 10 16 -9 33 -15 38 -11
5 3 12 1 16 -5 3 -5 20 -10 36 -10 22 0 32 6 39 25 12 31 26 37 64 27 37 -10
46 -31 17 -39 -35 -9 -18 -27 36 -38 28 -5 60 -18 72 -29 11 -10 27 -16 36
-13 19 8 19 21 0 37 -18 15 -19 36 -3 46 6 4 19 -3 30 -16 12 -15 25 -21 39
-17 11 3 33 -2 49 -11 28 -16 30 -16 43 3 13 17 19 18 50 8 40 -12 53 -7 36
14 -9 9 -8 21 1 43 12 29 11 33 -15 60 -16 17 -34 30 -41 30 -6 0 -14 8 -17
19 -3 12 -17 20 -46 25 -52 8 -53 29 -3 44 81 24 80 24 84 0 2 -12 15 -29 30
-37 25 -14 29 -14 51 7 44 41 76 16 47 -38 -8 -16 -3 -23 30 -47 32 -23 40
-34 40 -60 0 -28 5 -35 37 -48 20 -9 44 -13 52 -9 9 4 22 6 30 5 9 -2 4 10
-12 29 -18 21 -27 43 -27 66 0 43 10 43 42 -2 l26 -36 17 26 c12 17 24 25 34
21 22 -7 69 41 55 55 -7 7 -16 4 -29 -10 -25 -28 -32 -25 -39 15 -6 32 -10 35
-42 35 -24 0 -36 5 -40 18 -3 9 -11 29 -19 44 -11 21 -11 34 -2 58 13 34 32
39 46 11 11 -20 64 -32 134 -32 22 1 47 -4 57 -9 16 -8 19 -6 22 17 3 25 4 26
19 11 17 -18 39 -7 39 18 0 7 6 15 13 18 8 3 2 14 -18 31 -16 14 -29 30 -27
36 1 6 -3 17 -9 25 -8 9 -8 14 -1 14 6 0 13 -4 16 -9 3 -5 15 -7 27 -4 12 4
25 0 30 -8 7 -11 9 -9 9 8 0 29 33 48 50 28 13 -15 5 -70 -12 -92 -12 -15 0
-36 17 -29 7 2 21 -4 31 -15 19 -21 70 -26 77 -6 3 8 10 5 21 -10 22 -29 97
-30 123 -1 15 17 25 18 81 12 l63 -6 -7 27 c-6 26 -5 27 27 23 32 -3 34 -1 31
25 -2 17 3 29 13 33 8 3 15 12 15 20 0 11 16 14 65 14 51 0 65 3 65 15 0 16 1
17 47 21 41 3 62 -19 45 -47 -16 -25 -15 -35 5 -59 20 -23 43 -26 61 -8 19 19
123 14 137 -6 7 -9 20 -14 29 -11 53 17 52 15 24 33 -20 13 -24 22 -18 32 6 8
10 28 10 44 0 28 0 28 50 24 35 -4 50 -1 50 7 0 8 -19 14 -49 17 -35 4 -59 14
-90 38 -22 18 -41 38 -41 44 0 7 24 12 61 13 48 1 62 -3 71 -17 11 -17 13 -17
56 1 24 10 52 19 61 19 10 0 31 10 46 22 22 17 42 22 94 22 59 1 67 -1 76 -22
5 -12 17 -22 26 -22 10 0 26 -19 39 -48 24 -51 38 -64 58 -57 19 7 52 -13 52
-30 0 -19 14 -19 30 0 7 9 10 25 6 42 -6 22 -1 32 31 60 29 26 35 36 24 42
-19 12 -6 42 14 35 8 -3 15 -14 15 -23 0 -15 26 -40 66 -64 6 -3 34 13 62 37
37 32 58 43 72 39 16 -4 23 0 27 16 3 12 11 20 17 18 13 -4 29 11 39 36 3 9
15 17 26 17 11 0 21 6 23 12 4 10 11 10 29 2 20 -8 33 -5 74 18 28 15 58 30
67 34 10 3 20 15 24 26 5 16 14 19 67 18 34 -1 72 2 83 5 38 12 38 -15 1 -49
-46 -42 -37 -62 21 -47 35 10 46 9 83 -11 l42 -22 -26 -20 c-28 -23 -31 -62
-8 -90 12 -14 16 -14 41 4 26 18 28 19 42 2 9 -9 21 -27 27 -39 17 -33 88 -68
107 -52 10 8 18 9 27 0 19 -15 27 -4 27 41 0 32 3 38 23 39 12 1 26 1 31 0 4
-1 18 5 30 13 26 17 76 24 94 13 6 -5 12 -16 12 -26 0 -14 -10 -20 -41 -25
-34 -6 -40 -10 -37 -29 1 -12 -1 -28 -5 -35 -5 -7 -1 -29 9 -51 15 -35 21 -39
63 -44 49 -6 73 5 64 29 -3 8 0 20 6 28 6 7 9 20 5 29 -9 25 15 30 34 6 13
-16 33 -23 71 -27 51 -5 52 -6 46 -31 -4 -14 -14 -34 -23 -44 -9 -10 -16 -34
-17 -54 0 -54 -24 -63 -76 -29 -32 22 -50 27 -78 23 -54 -7 -125 29 -129 66
-3 26 -5 27 -16 11 -21 -28 -50 -11 -42 26 3 17 2 30 -3 30 -16 0 -31 -27 -25
-44 5 -12 -2 -20 -24 -28 -20 -8 -32 -20 -35 -37 -9 -48 34 -83 72 -59 28 17
66 -5 109 -64 21 -30 42 -48 54 -48 15 0 18 5 13 20 -3 11 -2 20 4 20 5 0 15
-16 21 -35 9 -27 17 -35 35 -35 13 0 26 4 29 9 3 5 26 12 51 15 50 8 52 11 29
45 -13 18 -14 25 -4 31 19 12 39 1 46 -25 3 -13 14 -25 25 -28 16 -4 18 -11
13 -31 -5 -22 -3 -26 15 -26 12 0 21 6 21 14 0 7 7 19 15 26 12 10 12 16 2 34
-6 11 -12 38 -12 59 -1 37 0 38 26 33 30 -6 62 22 72 64 13 55 57 79 57 31 0
-13 12 -22 40 -29 23 -5 40 -6 40 -1 0 5 16 9 36 9 l36 0 -7 46 c-9 64 -14 74
-36 74 -10 0 -19 5 -19 11 0 7 9 9 23 5 12 -3 30 -6 40 -6 9 0 17 -6 17 -14 0
-14 52 -46 74 -46 17 0 40 42 37 68 -2 18 2 22 23 22 16 0 26 6 26 15 0 8 3
15 8 15 11 0 82 -68 82 -79 0 -18 -17 -21 -30 -6 -20 24 -44 17 -60 -18 -10
-21 -23 -33 -40 -35 -39 -5 -72 -62 -35 -62 8 0 21 -12 28 -26 l14 -27 16 23
c12 17 22 21 41 16 31 -8 31 -11 6 -60 -10 -22 -17 -43 -14 -47 8 -14 40 -10
54 6 7 8 18 15 24 15 6 0 24 20 39 45 16 25 35 45 43 45 7 0 18 9 24 19 5 11
22 21 37 23 29 3 40 25 28 56 -6 16 -7 16 -16 0 -6 -10 -14 -18 -19 -18 -14 0
-12 58 1 62 9 3 8 11 -2 28 -13 24 -13 24 -20 -22 -11 -70 -31 -91 -44 -45 -4
12 -17 29 -28 39 -29 23 -10 44 49 53 32 4 48 12 51 24 3 14 14 18 41 17 27
-1 37 3 37 15 0 27 35 69 56 69 12 0 30 11 41 25 26 33 101 36 118 5 14 -26
37 -26 45 0 3 11 15 20 25 20 10 0 22 5 26 12 10 16 34 -19 34 -49 0 -24 0
-24 29 -7 22 13 35 14 57 7 28 -9 29 -12 29 -69 0 -55 2 -60 31 -80 18 -12 41
-25 52 -28 11 -4 26 -13 32 -21 16 -19 47 -19 84 0 35 18 46 12 46 -26 0 -19
-5 -29 -15 -29 -9 0 -15 -9 -15 -24 0 -19 4 -23 20 -19 15 4 20 0 20 -14 0
-21 48 -53 69 -45 10 3 12 -3 6 -26 -7 -33 7 -50 27 -32 7 5 26 20 41 31 19
15 26 27 22 40 -9 28 7 23 40 -11 16 -17 36 -30 45 -28 8 1 26 -2 39 -6 34
-12 49 8 26 34 -10 11 -26 20 -37 20 -26 0 -23 18 5 23 l22 4 -22 8 c-32 10
-28 32 9 51 l32 17 38 -44 c21 -24 37 -51 36 -59 -1 -8 6 -31 16 -50 20 -41
59 -52 76 -21 6 12 17 17 29 14 10 -2 36 6 57 19 56 35 74 41 123 42 28 1 47
7 56 19 7 9 17 17 24 17 6 0 11 9 11 19 0 11 4 22 10 26 5 3 7 12 3 20 -3 9 1
15 11 15 9 0 16 -4 16 -10 0 -5 8 -10 18 -10 25 0 82 -55 82 -78 0 -12 14 -28
35 -41 19 -11 35 -27 35 -36 0 -25 35 -17 91 20 33 23 58 33 68 29 9 -4 35
-10 59 -14 23 -4 45 -10 48 -13 6 -6 57 16 80 35 20 15 -6 52 -63 87 -52 33
-69 61 -37 61 27 0 84 40 99 71 14 26 18 27 36 16 16 -10 17 -13 4 -15 -11 -3
-15 -12 -13 -30 3 -23 10 -28 46 -36 35 -7 46 -6 60 8 9 9 46 32 82 49 53 27
65 37 65 57 0 41 -34 38 -71 -6 -19 -21 -36 -36 -39 -33 -22 23 19 152 50 157
33 6 38 18 20 45 -20 31 -13 47 21 47 17 0 24 5 24 20 0 21 -15 27 -25 10 -3
-5 -12 -7 -20 -3 -9 3 -15 -1 -15 -9 0 -25 -35 -48 -73 -48 -47 0 -55 16 -23
49 14 15 26 32 26 38 0 6 7 16 15 23 12 10 20 9 40 -4 24 -16 26 -16 37 9 10
22 8 29 -12 50 l-23 24 32 40 c18 22 30 45 26 50 -3 6 4 15 15 21 12 6 19 18
16 25 -2 7 2 19 10 26 10 8 14 25 12 48 -3 34 -6 37 -45 45 -40 8 -43 11 -43
42 0 19 5 34 10 34 20 0 10 39 -15 58 l-25 20 24 16 c47 30 41 89 -9 102 -35
9 -100 114 -75 122 19 7 40 33 40 52 0 10 -7 31 -15 46 -8 16 -15 41 -15 56 0
15 -4 29 -8 32 -14 9 -12 68 4 90 23 33 16 96 -12 96 -7 0 -18 9 -24 20 -9 17
-8 21 7 26 39 12 48 22 51 58 3 29 9 39 29 47 25 9 52 36 53 52 0 16 -36 6
-48 -13 -14 -23 -37 -26 -45 -6 -7 18 1 26 29 26 14 0 31 12 44 30 35 50 2 70
-40 25 -27 -29 -42 -31 -75 -9 -29 19 -33 57 -9 81 10 10 13 25 9 44 -5 22 -3
29 9 29 9 0 23 11 31 24 12 18 13 29 5 48 -11 24 1 78 17 78 5 0 14 4 22 9 11
7 7 15 -17 37 l-30 29 11 67 c7 37 17 72 24 79 9 9 8 17 -4 35 -8 13 -12 31
-9 40 3 9 -4 33 -15 54 -12 22 -19 47 -16 59 3 11 -1 25 -7 31 -7 5 -18 42
-25 82 -17 98 -17 98 -41 98 -24 0 -25 8 -5 46 19 37 19 115 0 140 -8 10 -15
29 -15 42 0 38 -17 59 -61 76 -32 13 -39 20 -34 34 4 9 8 25 10 34 8 40 37 68
69 68 21 0 40 8 55 24 l23 25 -25 33 c-22 30 -24 40 -20 116 3 80 3 84 -28
122 -28 34 -30 43 -21 67 11 30 10 68 -2 96 -5 11 -2 26 8 42 22 33 20 48 -4
40 -27 -9 -40 23 -15 37 12 7 14 13 6 17 -6 4 -13 31 -14 59 -2 54 -11 67 -20
31 -3 -12 -12 -19 -19 -17 -22 8 -20 36 4 61 13 13 22 29 21 34 -6 16 47 49
80 51 41 3 49 10 36 34 -7 12 -13 44 -15 71 -2 27 -8 55 -14 62 -5 6 -7 15 -3
19 4 4 -3 16 -17 26 l-25 19 19 35 c19 37 40 46 49 24 3 -7 6 -3 6 9 1 16 -3
21 -14 17 -10 -4 -15 0 -15 15 0 27 -22 27 -35 0 -16 -35 -134 -65 -150 -38
-10 15 -7 16 70 36 64 17 69 21 77 51 7 27 13 32 38 32 17 0 30 5 30 10 0 6 7
10 15 10 8 0 15 -6 15 -14 0 -8 4 -17 9 -21 5 -3 8 10 6 29 -2 29 1 35 18 38
24 4 36 28 13 28 -8 0 -19 7 -24 16 -5 9 -18 14 -33 12 -18 -2 -23 -9 -22 -26
3 -21 0 -22 -35 -16 -20 4 -37 7 -38 8 0 0 -8 19 -16 41 -10 27 -23 41 -37 43
-11 2 -21 8 -21 14 0 13 59 3 97 -17 38 -20 50 -19 56 7 4 12 9 19 13 15 4 -3
19 0 35 9 32 16 42 64 14 64 -21 0 -19 20 7 47 16 17 19 26 10 35 -7 7 -8 17
-1 29 7 14 5 26 -7 44 -9 14 -20 23 -24 20 -4 -3 -11 6 -14 20 -7 27 8 65 24
65 13 0 13 33 0 46 -17 17 -1 72 22 78 16 4 19 10 14 28 -4 13 -10 34 -13 48
-3 14 -11 30 -18 35 -16 13 -55 86 -55 102 0 17 -5 17 -49 -9 -33 -19 -45 -21
-77 -13 -33 9 -41 16 -52 50 -10 29 -10 45 -3 57 8 13 8 16 -2 12 -7 -2 -22 4
-32 16 -10 11 -26 20 -35 20 -9 0 -24 8 -33 18 -19 20 -23 47 -7 37 13 -8 42
14 34 26 -3 5 -29 9 -59 9 -51 0 -55 2 -69 33 -23 50 -28 75 -16 82 16 10 12
33 -10 55 -19 19 -19 19 5 49 28 33 25 52 -11 76 -21 14 -24 21 -18 53 9 47 8
47 57 47 41 0 42 0 39 33 -2 29 2 35 28 45 21 8 30 18 30 34 0 20 4 22 25 17
20 -5 25 -2 25 13 0 26 19 43 49 43 27 0 51 34 43 58 -5 16 -42 -4 -42 -23 0
-18 -20 -31 -29 -18 -3 5 -21 15 -40 21 -28 10 -38 9 -58 -4 -30 -19 -48 -7
-57 37 -10 50 2 82 29 76 21 -3 22 -2 12 20 -15 34 3 51 38 35 14 -6 25 -8 25
-3 0 5 19 23 43 40 23 17 52 38 65 47 12 9 22 25 22 36 0 21 40 41 54 27 19
-18 75 -10 86 12 12 21 7 34 -13 34 -25 0 -17 32 10 44 26 11 59 58 48 69 -3
3 -16 0 -30 -6 -36 -17 -45 -15 -45 9 0 11 -5 29 -11 40 -8 17 -6 24 15 40 15
12 26 31 26 44 0 13 5 27 10 30 11 7 14 48 3 58 -10 11 -43 -24 -43 -47 -1
-12 -9 -36 -19 -54 -16 -30 -23 -34 -65 -37 -44 -3 -50 0 -65 26 -9 16 -24 29
-33 29 -24 0 -23 31 1 37 11 3 31 23 45 44 23 35 31 39 67 39 42 0 52 21 13
29 -24 4 -43 30 -44 59 0 12 -4 22 -10 22 -16 0 -11 26 11 54 14 18 30 26 52
26 38 0 62 13 53 29 -10 16 -31 14 -46 -4 -17 -20 -27 -19 -35 5 -8 26 11 59
43 72 22 9 23 12 10 15 -14 3 -18 15 -18 44 0 33 3 40 18 37 11 -3 16 -12 14
-27 -3 -31 32 -25 36 7 2 12 10 22 17 22 20 0 85 59 85 76 0 8 -9 14 -21 14
-22 0 -22 8 -3 73 5 17 -4 21 -40 17 -26 -2 -15 24 12 28 21 3 26 12 23 39 -1
7 10 19 23 29 25 15 25 17 10 46 -8 16 -13 36 -10 45 5 11 -1 14 -27 11 l-32
-3 -1 50 c-1 28 -4 57 -8 66 -4 10 -3 20 2 23 15 9 42 -4 42 -20 0 -19 13 -18
26 4 14 24 19 96 5 88 -6 -4 -18 -3 -27 2 -11 6 -30 6 -51 0 -26 -7 -40 -6
-56 5 -12 7 -34 17 -49 21 -35 8 -35 26 -3 56 14 13 25 32 25 43 0 17 -4 18
-32 12 -18 -5 -55 -9 -81 -10 -45 -2 -60 -10 -70 -39 -2 -6 -19 0 -39 12 -42
26 -48 27 -48 6 0 -23 -61 -74 -90 -74 -33 0 -47 10 -59 43 -6 15 -21 31 -34
36 -32 13 -50 37 -44 61 6 24 -30 63 -50 55 -8 -2 -22 4 -33 15 -24 24 -40 26
-40 5 0 -18 -17 -20 -22 -3 -4 10 -10 10 -32 0 -40 -18 -67 -15 -73 8 -3 11
-14 20 -24 20 -10 0 -21 5 -24 10 -4 6 -11 7 -17 4 -5 -4 -20 -1 -33 6 -18 10
-28 9 -54 -5 -25 -12 -36 -14 -46 -5 -8 6 -23 9 -35 5 -28 -9 -10 -31 34 -44
21 -6 25 -10 11 -10 -11 -1 -28 -8 -39 -16 -11 -8 -30 -12 -45 -9 -20 4 -36
-1 -58 -20 -21 -17 -33 -22 -40 -15 -7 7 -17 4 -32 -12 -18 -20 -24 -21 -47
-10 -15 6 -28 10 -29 9 -10 -14 -22 -71 -18 -87 3 -12 1 -21 -4 -21 -5 0 -15
-11 -21 -25 -8 -17 -20 -25 -36 -25 -26 0 -43 27 -26 44 15 15 12 53 -4 59 -8
3 -20 -1 -26 -9 -7 -8 -15 -14 -19 -14 -12 0 -27 46 -21 61 4 8 14 28 22 44
22 46 42 114 35 121 -12 12 -38 -19 -33 -38 4 -19 -47 -88 -66 -88 -5 0 -20
-12 -33 -27 -31 -36 -17 -56 32 -47 32 6 35 5 29 -14 -4 -12 0 -34 9 -53 14
-26 15 -34 3 -45 -15 -16 -58 -8 -58 11 0 27 -27 37 -66 25 -52 -17 -69 2 -30
34 17 13 26 28 22 34 -9 15 -52 16 -61 2 -3 -5 -15 -10 -27 -10 -14 0 -18 5
-14 16 5 13 1 15 -21 9 -37 -9 -39 -12 -24 -36 10 -18 10 -24 -5 -40 -9 -10
-23 -19 -29 -19 -21 0 -26 -30 -9 -55 15 -23 15 -25 0 -31 -9 -3 -23 -3 -32 0
-10 4 -25 -1 -35 -10 -20 -18 -19 -18 -34 33 -2 6 -26 13 -52 15 l-48 4 38 17
c21 10 37 21 35 25 -2 4 -10 19 -17 34 l-14 28 -11 -23 c-8 -15 -21 -22 -40
-22 -16 -1 -34 -9 -42 -20 -16 -22 -18 -45 -4 -45 6 0 10 -7 10 -15 0 -18 -67
-32 -82 -17 -6 6 -24 8 -39 5 -24 -5 -29 -2 -29 15 0 12 5 24 10 27 20 12 9
25 -20 25 -50 0 -47 24 9 82 36 37 48 55 40 62 -7 8 -18 1 -37 -22 -29 -35
-42 -40 -42 -17 0 8 -6 15 -13 15 -8 0 -22 9 -32 20 -26 28 -45 25 -58 -10 -8
-21 -18 -30 -34 -30 -17 0 -27 -11 -44 -50 -21 -49 -44 -64 -55 -35 -3 8 6 35
20 59 14 25 26 47 26 49 0 11 -93 16 -112 6 -19 -10 -34 -6 -113 34 -17 8 -16
6 4 -17 14 -14 30 -26 38 -26 18 0 16 -17 -2 -24 -10 -4 -34 12 -67 44 -28 28
-60 50 -70 50 -32 0 -69 -30 -63 -51 3 -10 -1 -29 -10 -42 -9 -14 -15 -29 -14
-33 5 -29 -2 -34 -39 -28 -33 5 -41 2 -70 -27 -36 -37 -38 -42 -17 -59 8 -7
15 -26 15 -42 0 -45 -32 -33 -42 15 -4 20 -17 55 -27 76 -11 21 -17 41 -14 45
10 10 -38 55 -53 49 -17 -6 -19 -60 -2 -65 7 -3 8 -10 3 -17 -10 -17 -104 -9
-115 9 -11 18 -40 5 -40 -18 0 -11 -9 -31 -21 -46 -11 -15 -24 -39 -28 -54 -6
-20 -15 -28 -36 -30 -16 -2 -42 -13 -58 -24 -21 -15 -31 -17 -41 -9 -7 6 -20
9 -29 6 -9 -4 -23 5 -37 24 -15 23 -29 31 -51 31 -16 0 -29 5 -29 10 0 20 -67
10 -104 -15 -20 -14 -43 -25 -51 -25 -8 0 -22 -14 -30 -31 -16 -29 -17 -30
-35 -14 -10 9 -25 15 -32 13 -17 -6 -88 31 -88 45 0 6 -9 20 -20 32 -10 11
-28 29 -38 40 -10 11 -27 25 -38 31 -33 20 -6 29 32 11 42 -20 59 -15 43 14
-8 16 -17 19 -38 14 -36 -8 -66 21 -38 36 9 6 17 17 17 26 0 13 -3 13 -26 -2
-25 -16 -28 -16 -36 -1 -13 23 -23 20 -36 -9 -14 -30 -55 -34 -83 -9 -16 15
-20 15 -33 1 -9 -9 -25 -13 -38 -10 -21 4 -22 3 -5 -10 22 -18 22 -27 -2 -27
-11 0 -25 13 -33 30 -13 27 -17 29 -28 15 -17 -20 -29 -19 -56 5 -21 20 -22
20 -58 3 -30 -14 -41 -15 -57 -5 -17 11 -19 9 -19 -17 0 -17 -4 -32 -10 -36
-5 -3 -7 -12 -4 -19 4 -9 -6 -16 -31 -20 -52 -10 -58 -2 -52 69 7 71 22 63
-122 65 -86 1 -104 -9 -90 -48 13 -38 74 -85 99 -77 11 4 20 2 20 -4 0 -6 -4
-11 -9 -11 -14 0 -19 -33 -9 -59 7 -20 13 -23 40 -17 17 3 47 1 66 -6 31 -12
35 -11 53 10 23 30 39 20 39 -23 0 -31 -3 -34 -27 -32 -26 2 -28 -1 -25 -29 3
-34 -9 -48 -50 -58 -25 -6 -28 -4 -28 19 0 28 -12 32 -30 10 -20 -24 -54 -15
-60 16 -4 23 -8 25 -27 18 -23 -8 -32 -39 -13 -39 16 0 12 -20 -5 -27 -21 -7
-44 24 -45 60 0 24 -3 27 -20 22 -11 -3 -20 -2 -20 4 0 5 -9 13 -20 16 -30 9
-25 49 8 74 15 11 22 21 15 21 -6 0 -15 -4 -18 -10 -3 -5 -16 -10 -27 -10 -12
0 -29 -7 -38 -15 -14 -13 -28 -14 -76 -6 -65 10 -78 3 -69 -37 7 -27 -15 -38
-43 -23 -29 15 -82 3 -82 -19 0 -10 7 -23 15 -30 21 -18 1 -50 -31 -50 -38 0
-64 -18 -64 -44 0 -30 -20 -47 -46 -40 -12 3 -26 -1 -33 -10 -18 -22 -25 -21
-90 17 -31 19 -68 36 -81 40 -14 3 -42 12 -63 20 -47 17 -88 11 -94 -14 -8
-28 -40 -24 -39 4 1 16 -5 23 -24 25 -38 5 -44 17 -30 52 11 26 11 34 -2 46
-12 13 -19 13 -50 0 -37 -16 -48 -13 -48 13 -1 17 -33 61 -46 61 -4 0 -26 -16
-50 -35 -46 -38 -74 -44 -99 -19 -8 9 -22 13 -31 10 -20 -8 -54 11 -54 29 0 9
-6 12 -15 9 -8 -4 -22 -1 -30 6 -13 10 -19 9 -35 -5 -19 -17 -21 -16 -62 21
-24 21 -52 56 -63 78 -11 22 -29 44 -40 49 -11 6 -27 13 -35 17 -8 4 -17 20
-20 36 -4 25 -10 29 -43 32 -28 2 -45 -3 -67 -22 -16 -13 -55 -32 -86 -41 -31
-9 -67 -23 -80 -32 -15 -9 -31 -12 -41 -8 -10 5 -26 7 -35 6 -26 -3 -22 25 7
64 26 34 27 71 2 103 -13 17 -37 15 -37 -3 0 -25 -28 -17 -42 13 -7 15 -23 28
-35 30 -19 3 -23 -3 -28 -42 -9 -55 -26 -63 -72 -35 -38 24 -40 49 -5 64 12 5
21 17 20 25 -4 21 -56 26 -64 6 -9 -22 -40 -20 -74 6 -22 16 -27 25 -19 34 16
20 1 37 -17 19 -17 -17 -50 -20 -59 -5 -3 5 -18 18 -34 29 -28 20 -29 20 -46
1z m6715 -179 c0 -11 -26 -22 -34 -14 -12 12 -5 23 14 23 11 0 20 -4 20 -9z
m-6566 -43 c-3 -5 -12 -4 -20 3 -7 6 -11 15 -8 21 3 5 12 4 20 -3 7 -6 11 -15
8 -21z m253 -44 c-9 -9 -28 6 -21 18 4 6 10 6 17 -1 6 -6 8 -13 4 -17z m-1683
9 c4 -5 12 -8 17 -8 5 0 9 -3 9 -7 0 -9 0 -9 -30 -1 -11 3 -20 9 -20 14 0 11
14 12 24 2z m7376 -2 c0 -12 -20 -25 -27 -18 -7 7 6 27 18 27 5 0 9 -4 9 -9z
m610 -11 c0 -5 -2 -10 -4 -10 -3 0 -8 5 -11 10 -3 6 -1 10 4 10 6 0 11 -4 11
-10z m-1655 -11 c4 -6 5 -13 2 -16 -8 -7 -47 7 -47 18 0 13 37 11 45 -2z
m1090 -9 c3 -5 -1 -10 -9 -10 -9 0 -16 5 -16 10 0 6 4 10 9 10 6 0 13 -4 16
-10z m-8665 -36 c0 -19 -16 -18 -24 2 -11 27 -7 37 9 24 8 -7 15 -19 15 -26z
m9210 16 c0 -5 -7 -10 -15 -10 -8 0 -15 5 -15 10 0 6 7 10 15 10 8 0 15 -4 15
-10z m-1030 -50 c0 -20 -21 -10 -30 16 -14 37 -12 40 10 16 11 -12 20 -26 20
-32z m415 40 c3 -5 1 -10 -4 -10 -6 0 -11 5 -11 10 0 6 2 10 4 10 3 0 8 -4 11
-10z m-1416 -29 c9 -6 10 -11 2 -15 -8 -5 -8 -13 -1 -26 24 -45 -11 -73 -38
-30 -7 12 -17 18 -21 15 -5 -3 -20 5 -34 17 l-25 22 22 12 c25 14 76 17 95 5z
m49 -23 c-6 -18 -28 -21 -28 -4 0 9 7 16 16 16 9 0 14 -5 12 -12z m28 -49 c10
-17 -13 -36 -27 -22 -12 12 -4 33 11 33 5 0 12 -5 16 -11z m-1776 -24 c0 -8
-4 -15 -10 -15 -5 0 -10 7 -10 15 0 8 5 15 10 15 6 0 10 -7 10 -15z m2890 -4
c0 -6 -4 -13 -10 -16 -5 -3 -10 1 -10 9 0 9 5 16 10 16 6 0 10 -4 10 -9z
m-2891 -57 c27 -45 20 -88 -13 -78 -11 3 -24 9 -27 13 -8 9 2 101 11 101 4 0
17 -16 29 -36z m206 26 c11 -17 -5 -32 -21 -19 -7 6 -11 15 -8 20 7 12 21 11
29 -1z m545 0 c0 -5 -4 -10 -10 -10 -5 0 -10 5 -10 10 0 6 5 10 10 10 6 0 10
-4 10 -10z m-7565 -19 c7 -12 -12 -24 -25 -16 -11 7 -4 25 10 25 5 0 11 -4 15
-9z m6265 -11 c0 -5 -7 -10 -15 -10 -8 0 -15 5 -15 10 0 6 7 10 15 10 8 0 15
-4 15 -10z m3070 -40 c0 -5 -4 -10 -10 -10 -5 0 -10 5 -10 10 0 6 5 10 10 10
6 0 10 -4 10 -10z m-9590 -50 c0 -5 -4 -10 -10 -10 -5 0 -10 5 -10 10 0 6 5
10 10 10 6 0 10 -4 10 -10z m7660 0 c0 -5 -5 -10 -11 -10 -5 0 -7 5 -4 10 3 6
8 10 11 10 2 0 4 -4 4 -10z m-7477 -24 c7 -16 -1 -26 -20 -26 -7 0 -13 9 -13
20 0 23 25 27 33 6z m6730 -31 c7 -16 -8 -29 -23 -20 -15 9 -12 35 4 35 8 0
16 -7 19 -15z m4504 -36 l28 -10 -25 -19 c-31 -24 -65 -27 -56 -4 3 9 6 22 6
30 0 17 9 18 47 3z m-11743 -277 c5 -18 6 -36 2 -40 -11 -10 -36 28 -36 56 0
33 23 23 34 -16z m-34 -52 c21 -13 9 -20 -47 -27 -50 -5 -72 5 -58 27 8 13 85
13 105 0z m87 -161 c14 -14 6 -39 -12 -39 -18 0 -26 15 -19 34 7 19 16 20 31
5z m-9 -172 c2 -10 -3 -17 -12 -17 -18 0 -29 16 -21 31 9 14 29 6 33 -14z
m-58 -92 c0 -9 -9 -15 -25 -15 -16 0 -25 6 -25 15 0 9 9 15 25 15 16 0 25 -6
25 -15z m11450 -272 c0 -14 -34 -43 -52 -43 -22 0 -23 13 -2 34 15 16 54 22
54 9z m-60 -418 c47 -4 50 -5 50 -20 0 -18 -12 -19 -28 -3 -9 9 -15 8 -26 -8
-12 -15 -17 -17 -27 -6 -7 6 -21 12 -31 12 -20 0 -25 26 -5 33 6 3 19 3 27 0
8 -3 26 -7 40 -8z m146 -701 c-3 -9 -6 -18 -6 -20 0 -2 -7 -4 -15 -4 -18 0
-19 12 -3 28 17 17 31 15 24 -4z m152 -246 c18 -18 14 -38 -7 -38 -24 0 -33
13 -25 34 7 19 16 20 32 4z m122 -17 c0 -12 -20 -25 -27 -18 -7 7 6 27 18 27
5 0 9 -4 9 -9z m-11793 -243 c23 -26 43 -61 43 -77 0 -18 -29 -12 -39 8 -14
26 -40 34 -59 19 -12 -11 -16 -11 -20 0 -2 7 -17 19 -34 28 -34 18 -28 30 17
37 61 8 72 7 92 -15z m53 -409 c0 -5 -7 -9 -15 -9 -15 0 -20 12 -9 23 8 8 24
-1 24 -14z m-2 -56 c-2 -11 -14 -19 -31 -21 -29 -4 -35 6 -15 26 19 19 50 15
46 -5z m-33 -63 c3 -5 -4 -10 -15 -10 -14 0 -24 -8 -27 -20 -5 -18 -49 -50
-69 -50 -3 0 -3 11 0 24 4 17 1 28 -10 34 -9 5 -14 14 -10 21 9 14 122 15 131
1z m191 -76 c8 -30 -7 -44 -48 -44 -34 0 -34 4 -5 40 28 36 45 37 53 4z m-233
-44 c-1 -35 -34 -77 -52 -66 -14 9 -14 43 0 51 5 4 14 18 20 32 13 34 34 23
32 -17z m11567 30 c0 -5 -4 -10 -10 -10 -5 0 -10 5 -10 10 0 6 5 10 10 10 6 0
10 -4 10 -10z m-11606 -456 c15 -14 23 -74 11 -74 -12 0 -62 29 -73 42 -12 15
-5 32 18 41 24 9 28 8 44 -9z m211 -864 c7 -23 -1 -40 -19 -40 -14 0 -28 45
-18 55 12 11 31 4 37 -15z m-145 -404 c0 -19 -27 -39 -40 -31 -8 5 -6 13 6 26
20 22 34 25 34 5z m-55 -96 c-3 -5 -10 -10 -16 -10 -5 0 -9 5 -9 10 0 6 7 10
16 10 8 0 12 -4 9 -10z m-195 -476 c0 -16 -16 -19 -25 -4 -8 13 4 32 16 25 5
-4 9 -13 9 -21z m11958 -204 c-7 -11 -16 -20 -20 -20 -5 0 -3 9 4 20 7 11 16
20 20 20 5 0 3 -9 -4 -20z m-27 -1263 c-1 -12 -15 -9 -19 4 -3 6 1 10 8 8 6
-3 11 -8 11 -12z m-3771 -38 c0 -5 -7 -9 -15 -9 -15 0 -20 12 -9 23 8 8 24 -1
24 -14z m3774 -83 c-6 -24 -23 -34 -37 -20 -3 4 1 20 9 36 19 36 39 25 28 -16z
m-40 -38 c7 -19 10 -37 5 -42 -13 -14 -49 23 -49 51 0 34 28 29 44 -9z m-134
-198 c0 -12 -28 -25 -36 -17 -9 9 6 27 22 27 8 0 14 -5 14 -10z m-9519 -71 c6
-24 4 -25 -20 -21 -35 6 -51 20 -44 38 10 25 56 13 64 -17z m112 10 c-4 -15
-8 -17 -14 -8 -8 14 -3 29 11 29 4 0 6 -9 3 -21z m4267 -9 c0 -5 -4 -10 -10
-10 -5 0 -10 5 -10 10 0 6 5 10 10 10 6 0 10 -4 10 -10z m-4403 -66 c-9 -9
-28 6 -21 18 4 6 10 6 17 -1 6 -6 8 -13 4 -17z m8503 -14 c0 -5 -8 -14 -18
-19 -26 -14 -45 5 -31 31 8 14 14 16 29 8 11 -6 20 -15 20 -20z m-10140 16 c0
-11 -19 -15 -25 -6 -3 5 1 10 9 10 9 0 16 -2 16 -4z m970 -16 c0 -5 -4 -10
-10 -10 -5 0 -10 5 -10 10 0 6 5 10 10 10 6 0 10 -4 10 -10z m4553 -15 c-3 -8
-9 -15 -14 -15 -10 0 -12 24 -3 33 11 11 24 -3 17 -18z m4537 5 c0 -15 -7 -20
-28 -20 -35 0 -45 9 -31 27 18 21 59 17 59 -7z m-7610 -25 c0 -8 -4 -15 -10
-15 -5 0 -10 7 -10 15 0 8 5 15 10 15 6 0 10 -7 10 -15z m-2480 -14 c0 -6 -11
-23 -24 -38 -22 -25 -25 -26 -31 -10 -5 11 -1 25 10 37 19 21 45 27 45 11z
m1810 -6 c7 -9 10 -18 7 -22 -8 -7 -37 15 -37 28 0 14 16 11 30 -6z m3220 -15
c0 -11 -4 -20 -9 -20 -11 0 -22 26 -14 34 12 12 23 5 23 -14z m5510 0 c0 -5
-4 -10 -10 -10 -5 0 -10 5 -10 10 0 6 5 10 10 10 6 0 10 -4 10 -10z m-8840
-10 c0 -5 -7 -10 -15 -10 -8 0 -15 5 -15 10 0 6 7 10 15 10 8 0 15 -4 15 -10z
m3780 -30 c0 -5 -4 -10 -10 -10 -5 0 -10 5 -10 10 0 6 5 10 10 10 6 0 10 -4
10 -10z m2805 -90 c3 -5 1 -10 -4 -10 -6 0 -11 5 -11 10 0 6 2 10 4 10 3 0 8
-4 11 -10z m-5005 -59 c7 -14 7 -22 -1 -27 -12 -7 -29 12 -29 34 0 19 18 14
30 -7z m1180 -15 c0 -3 -4 -8 -10 -11 -5 -3 -10 -1 -10 4 0 6 5 11 10 11 6 0
10 -2 10 -4z m-1540 -51 c13 -14 20 -28 16 -32 -11 -11 -60 20 -64 40 -5 25
21 21 48 -8z m324 -31 c10 -27 -3 -30 -26 -6 l-22 22 21 0 c11 0 24 -7 27 -16z
m666 -9 c0 -21 -39 -40 -54 -25 -8 8 -6 15 8 26 25 18 46 18 46 -1z m54 -11
c9 -3 16 -15 16 -25 0 -24 -55 -27 -64 -3 -11 29 11 42 48 28z"/>
<path d="M11234 8826 c-15 -12 -15 -14 1 -29 12 -13 21 -15 36 -7 10 6 19 17
19 24 0 19 -36 26 -56 12z"/>
<path d="M3820 8791 c0 -12 29 -23 42 -15 6 4 5 10 -3 15 -18 11 -39 11 -39 0z"/>
<path d="M11022 8768 c-13 -13 -16 -38 -6 -38 8 0 33 32 34 43 0 11 -15 8 -28
-5z"/>
<path d="M9526 8734 c10 -15 23 -23 31 -20 8 4 17 6 20 6 3 0 -6 9 -20 20 -36
28 -51 25 -31 -6z"/>
<path d="M10120 8741 c0 -11 39 -26 47 -17 8 8 3 12 -24 20 -13 4 -23 3 -23
-3z"/>
<path d="M12341 8731 c-8 -14 -6 -23 9 -36 11 -10 20 -24 20 -31 0 -20 19 -27
35 -14 22 18 18 56 -7 80 -27 25 -44 25 -57 1z"/>
<path d="M10060 8730 c0 -5 4 -10 9 -10 6 0 13 5 16 10 3 6 -1 10 -9 10 -9 0
-16 -4 -16 -10z"/>
<path d="M9420 8679 c-6 -23 -9 -44 -5 -47 9 -9 75 29 75 44 0 13 -37 44 -52
44 -4 0 -12 -18 -18 -41z"/>
<path d="M9070 8699 c0 -5 5 -7 10 -4 6 3 10 8 10 11 0 2 -4 4 -10 4 -5 0 -10
-5 -10 -11z"/>
<path d="M7443 8678 c11 -42 -36 -63 -83 -38 -16 9 -22 5 -35 -20 -9 -18 -23
-30 -35 -30 -20 0 -25 -14 -21 -59 1 -13 -5 -31 -14 -41 -10 -11 -14 -23 -11
-29 12 -20 -17 -23 -33 -4 -19 24 -48 36 -56 23 -4 -6 -17 -10 -31 -10 -26 0
-31 -17 -11 -43 11 -15 19 -16 72 -6 75 14 98 26 91 46 -12 31 4 53 37 52 55
-1 102 15 105 36 8 55 12 62 34 61 18 -1 24 5 26 27 3 28 -12 57 -30 57 -6 0
-8 -10 -5 -22z"/>
<path d="M9103 8643 c-28 -19 -30 -43 -4 -43 21 0 54 38 45 52 -7 11 -15 10
-41 -9z"/>
<path d="M8840 8610 c0 -11 4 -20 8 -20 5 0 15 -11 22 -25 17 -32 52 -33 70
-1 19 37 7 59 -29 51 -17 -3 -32 -2 -36 4 -11 18 -35 12 -35 -9z"/>
<path d="M10860 8605 c0 -8 5 -15 10 -15 6 0 10 7 10 15 0 8 -4 15 -10 15 -5
0 -10 -7 -10 -15z"/>
<path d="M1133 8530 c-25 -10 -27 -17 -13 -40 11 -18 35 -6 58 28 13 20 13 22
-4 21 -11 0 -29 -4 -41 -9z"/>
<path d="M1280 8533 c0 -5 5 -15 10 -23 8 -12 10 -11 10 8 0 12 -4 22 -10 22
-5 0 -10 -3 -10 -7z"/>
<path d="M7458 8529 c-24 -13 -23 -29 2 -29 13 0 20 7 20 20 0 23 1 23 -22 9z"/>
<path d="M7545 8530 c-3 -5 -1 -10 4 -10 6 0 11 5 11 10 0 6 -2 10 -4 10 -3 0
-8 -4 -11 -10z"/>
<path d="M8959 8499 c-15 -29 3 -46 25 -24 9 9 16 23 16 31 0 21 -28 17 -41
-7z"/>
<path d="M8730 8490 c-10 -19 -9 -21 12 -18 13 2 23 9 23 17 0 23 -23 24 -35
1z"/>
<path d="M12521 8386 c-7 -8 -9 -21 -5 -27 5 -9 10 -5 16 11 10 28 5 36 -11
16z"/>
<path d="M471 8154 c-29 -36 -14 -53 15 -18 13 16 23 32 24 37 0 15 -19 6 -39
-19z"/>
<path d="M377 7685 c3 -14 10 -25 15 -25 13 0 6 43 -8 47 -7 2 -10 -6 -7 -22z"/>
<path d="M12406 7584 c-18 -17 -21 -34 -6 -34 12 0 50 32 50 42 0 14 -28 9
-44 -8z"/>
<path d="M12487 7566 c-6 -15 1 -26 15 -26 5 0 6 5 2 11 -3 6 0 15 7 20 11 7
11 9 -2 9 -9 0 -19 -6 -22 -14z"/>
<path d="M12439 7401 c-25 -20 -21 -38 5 -28 17 7 41 47 27 47 -5 0 -19 -9
-32 -19z"/>
<path d="M575 7281 c-6 -11 9 -23 19 -14 9 9 7 23 -3 23 -6 0 -12 -4 -16 -9z"/>
<path d="M370 7044 c0 -9 5 -14 12 -12 18 6 21 28 4 28 -9 0 -16 -7 -16 -16z"/>
<path d="M12352 6963 c-6 -2 -10 -9 -7 -13 7 -11 35 -2 35 11 0 10 -8 10 -28
2z"/>
<path d="M12097 6905 c6 -18 34 -16 41 3 2 7 -6 12 -22 12 -19 0 -24 -4 -19
-15z"/>
<path d="M12385 6870 c3 -5 13 -10 21 -10 8 0 14 5 14 10 0 6 -9 10 -21 10
-11 0 -17 -4 -14 -10z"/>
<path d="M12267 6750 c3 -11 7 -20 8 -20 1 0 5 9 8 20 3 12 0 20 -8 20 -8 0
-11 -8 -8 -20z"/>
<path d="M12170 6680 c0 -5 5 -10 10 -10 6 0 10 5 10 10 0 6 -4 10 -10 10 -5
0 -10 -4 -10 -10z"/>
<path d="M523 6664 c-8 -23 20 -47 46 -39 23 7 27 25 9 43 -17 17 -48 15 -55
-4z"/>
<path d="M436 6627 c-13 -10 -16 -20 -10 -41 6 -26 10 -28 42 -22 52 8 60 21
32 51 -27 28 -39 31 -64 12z"/>
<path d="M12146 6542 c-3 -5 -2 -19 1 -31 5 -19 10 -21 32 -15 14 4 37 7 51 7
42 -2 67 31 35 44 -9 3 -21 -2 -28 -11 -9 -13 -20 -16 -40 -11 -15 4 -27 11
-27 16 0 11 -17 12 -24 1z"/>
<path d="M397 6504 c-3 -3 -2 -17 3 -30 14 -37 -6 -81 -39 -87 -41 -8 -52 -54
-19 -79 13 -10 34 -28 47 -39 l25 -21 19 26 c10 14 24 26 31 26 7 0 12 17 12
43 1 23 6 58 11 78 9 31 8 39 -8 53 -11 9 -24 16 -29 16 -6 0 -10 5 -10 10 0
11 -33 14 -43 4z"/>
<path d="M12066 6471 c-20 -22 -14 -41 13 -41 24 0 45 25 37 45 -8 21 -29 19
-50 -4z"/>
<path d="M12160 6410 c0 -19 11 -26 23 -14 8 8 -3 34 -14 34 -5 0 -9 -9 -9
-20z"/>
<path d="M12230 6414 c0 -8 5 -12 10 -9 6 3 10 10 10 16 0 5 -4 9 -10 9 -5 0
-10 -7 -10 -16z"/>
<path d="M12235 6310 c3 -5 10 -10 16 -10 5 0 9 5 9 10 0 6 -7 10 -16 10 -8 0
-12 -4 -9 -10z"/>
<path d="M12192 6274 c9 -9 21 -13 27 -9 16 10 3 25 -22 25 -20 0 -20 -1 -5
-16z"/>
<path d="M407 6203 c-11 -10 -8 -53 2 -53 14 0 41 41 35 52 -6 10 -28 11 -37
1z"/>
<path d="M455 6150 c-8 -13 4 -32 16 -25 12 8 12 35 0 35 -6 0 -13 -4 -16 -10z"/>
<path d="M12287 6118 c-6 -21 4 -48 19 -48 9 0 12 8 10 23 -3 12 -5 25 -5 30
-1 12 -19 8 -24 -5z"/>
<path d="M12294 6029 c-9 -16 10 -31 30 -23 13 5 14 9 5 20 -14 17 -25 18 -35
3z"/>
<path d="M335 5918 c3 -7 7 -29 9 -48 2 -19 4 -38 5 -42 0 -5 7 -8 14 -8 6 0
25 -11 41 -25 17 -14 36 -23 44 -20 7 3 16 5 18 5 7 0 4 40 -3 41 -5 1 -25 2
-46 3 -46 3 -55 11 -39 36 10 16 8 23 -14 45 -28 28 -36 31 -29 13z"/>
<path d="M410 5151 c0 -15 29 -33 45 -27 22 8 6 36 -21 36 -13 0 -24 -4 -24
-9z"/>
<path d="M386 5071 c-14 -5 -16 -10 -8 -15 7 -4 12 -16 12 -27 0 -10 6 -19 14
-19 22 0 28 17 10 24 -10 4 -14 14 -11 26 3 11 4 20 4 19 -1 0 -11 -4 -21 -8z"/>
<path d="M12480 4740 c0 -5 7 -10 15 -10 8 0 15 5 15 10 0 6 -7 10 -15 10 -8
0 -15 -4 -15 -10z"/>
<path d="M12386 4665 c4 -8 12 -15 20 -15 19 0 18 16 -2 24 -22 9 -24 8 -18
-9z"/>
<path d="M12414 4505 c-14 -11 -15 -14 -4 -15 28 0 60 12 54 21 -8 13 -28 11
-50 -6z"/>
<path d="M12380 4460 c0 -5 5 -10 11 -10 5 0 7 5 4 10 -3 6 -8 10 -11 10 -2 0
-4 -4 -4 -10z"/>
<path d="M12355 4400 c-3 -5 -1 -10 4 -10 6 0 11 5 11 10 0 6 -2 10 -4 10 -3
0 -8 -4 -11 -10z"/>
<path d="M546 3959 c-14 -11 -26 -25 -26 -30 0 -12 62 -11 97 2 l28 10 -25 19
c-32 25 -41 25 -74 -1z"/>
<path d="M12416 3891 c-3 -5 1 -12 10 -15 27 -11 37 -7 24 9 -14 17 -26 19
-34 6z"/>
<path d="M612 3863 c-9 -14 -15 -16 -29 -7 -24 15 -43 7 -43 -18 0 -15 5 -19
20 -15 12 3 23 -1 28 -10 14 -25 47 -11 50 21 4 36 -12 55 -26 29z"/>
<path d="M12316 3834 c-4 -10 -1 -14 6 -12 15 5 23 28 10 28 -5 0 -13 -7 -16
-16z"/>
<path d="M12380 3835 c0 -8 9 -15 19 -15 26 0 35 16 15 24 -25 10 -34 7 -34
-9z"/>
<path d="M12346 3801 c-4 -6 3 -15 14 -21 23 -12 27 2 6 19 -9 8 -16 8 -20 2z"/>
<path d="M12484 3784 c-1 -13 2 -21 7 -18 11 6 12 31 2 37 -5 3 -9 -6 -9 -19z"/>
<path d="M12470 3728 c0 -7 -9 -19 -20 -26 -25 -15 -26 -42 -2 -42 25 0 55 34
50 56 -4 21 -28 31 -28 12z"/>
<path d="M12522 2833 c-8 -14 -9 -24 -2 -28 12 -7 24 18 18 37 -3 8 -9 5 -16
-9z"/>
<path d="M12564 2805 c-10 -26 6 -38 27 -19 10 9 19 21 19 26 0 14 -40 9 -46
-7z"/>
<path d="M430 2778 c0 -7 5 -20 10 -28 8 -12 10 -9 10 13 0 15 -4 27 -10 27
-5 0 -10 -6 -10 -12z"/>
<path d="M12505 2270 c-9 -15 3 -30 24 -30 23 0 31 9 24 26 -6 16 -39 19 -48
4z"/>
<path d="M397 1993 c-13 -12 -7 -51 8 -57 14 -5 45 17 45 33 0 21 -39 39 -53
24z"/>
<path d="M350 1921 c0 -11 25 -21 53 -21 17 1 15 4 -12 15 -39 18 -41 18 -41
6z"/>
<path d="M314 1836 c-11 -29 4 -46 42 -46 43 0 42 16 -4 43 -29 17 -33 17 -38
3z"/>
<path d="M12594 1694 c0 -30 3 -54 8 -54 4 0 8 -4 8 -10 0 -5 -7 -7 -15 -4
-16 6 -19 -4 -9 -30 12 -30 34 -18 34 18 0 19 4 37 9 40 9 6 -9 70 -25 86 -5
5 -9 -13 -10 -46z"/>
<path d="M12557 963 c-12 -11 -8 -23 8 -23 8 0 15 7 15 15 0 16 -12 20 -23 8z"/>
<path d="M8249 928 c-7 -13 -18 -27 -25 -31 -23 -14 -16 -33 21 -53 34 -18 35
-18 62 2 34 25 37 58 7 62 -12 2 -24 12 -27 23 -7 26 -24 24 -38 -3z"/>
<path d="M611 926 c-17 -20 -6 -49 16 -44 22 4 26 20 10 42 -12 16 -14 16 -26
2z"/>
<path d="M10360 895 c0 -8 5 -15 10 -15 6 0 10 7 10 15 0 8 -4 15 -10 15 -5 0
-10 -7 -10 -15z"/>
<path d="M528 853 c7 -3 16 -2 19 1 4 3 -2 6 -13 5 -11 0 -14 -3 -6 -6z"/>
<path d="M10475 836 c-22 -16 -14 -46 12 -46 15 0 15 -2 -3 -15 -18 -13 -17
-14 16 -13 20 1 45 -4 57 -10 12 -7 31 -12 42 -12 28 0 29 40 1 47 -10 3 -22
14 -25 24 -4 10 -15 19 -25 19 -10 0 -22 5 -25 10 -9 14 -28 12 -50 -4z"/>
<path d="M10420 816 c0 -8 5 -18 10 -21 6 -3 10 3 10 14 0 12 -4 21 -10 21 -5
0 -10 -6 -10 -14z"/>
<path d="M8229 806 c16 -19 65 -22 59 -3 -3 6 -20 13 -38 15 -30 3 -32 2 -21
-12z"/>
<path d="M7420 806 c0 -9 30 -14 35 -6 4 6 -3 10 -14 10 -12 0 -21 -2 -21 -4z"/>
<path d="M12260 730 c0 -5 4 -10 9 -10 6 0 13 5 16 10 3 6 -1 10 -9 10 -9 0
-16 -4 -16 -10z"/>
<path d="M10615 720 c-4 -7 -18 -9 -31 -6 -27 7 -32 -5 -8 -24 19 -16 69 -2
69 19 0 18 -21 26 -30 11z"/>
<path d="M1133 658 c-18 -24 -22 -61 -10 -100 6 -21 14 -38 17 -38 3 0 11 13
18 29 11 24 11 33 0 51 -11 18 -10 23 6 35 19 14 14 35 -8 35 -8 0 -18 -6 -23
-12z"/>
<path d="M10280 639 c0 -15 30 -38 49 -39 10 0 7 8 -9 25 -25 27 -40 32 -40
14z"/>
<path d="M10462 624 c2 -19 -3 -34 -15 -44 -16 -13 -17 -19 -6 -43 16 -35 35
-34 54 3 14 28 14 31 -1 37 -13 5 -10 10 15 25 37 24 40 36 9 35 -13 0 -31 3
-41 8 -16 7 -18 4 -15 -21z"/>
<path d="M6868 618 c-31 -11 -38 -42 -12 -52 17 -6 53 29 54 52 0 14 -5 14
-42 0z"/>
<path d="M8795 570 c-3 -5 -1 -10 4 -10 6 0 11 5 11 10 0 6 -2 10 -4 10 -3 0
-8 -4 -11 -10z"/>
<path d="M1500 555 c-20 -24 3 -65 35 -65 14 0 25 5 25 10 0 6 8 10 17 10 12
0 7 8 -17 30 -41 34 -44 35 -60 15z"/>
<path d="M9514 513 c-3 -10 -9 -24 -13 -32 -8 -15 8 -61 22 -61 4 0 24 16 43
35 45 45 40 75 -12 75 -24 0 -36 -5 -40 -17z"/>
<path d="M1235 510 c3 -5 11 -10 16 -10 6 0 7 5 4 10 -3 6 -11 10 -16 10 -6 0
-7 -4 -4 -10z"/>
<path d="M1175 500 c-3 -5 -26 -10 -50 -10 -49 0 -58 -8 -50 -43 5 -18 12 -23
26 -20 10 3 19 0 19 -6 0 -6 -4 -11 -10 -11 -5 0 -10 -9 -10 -20 0 -22 27 -40
60 -40 19 0 21 4 15 30 -6 26 -3 30 20 36 21 5 25 11 21 28 -3 11 -6 31 -6 44
0 22 -23 31 -35 12z"/>
<path d="M3535 505 c-79 -23 -95 -29 -95 -34 0 -14 32 -51 44 -51 16 0 106 38
124 53 27 22 -27 46 -73 32z"/>
<path d="M7145 494 c-19 -19 -7 -38 21 -32 23 4 32 48 10 48 -8 0 -22 -7 -31
-16z"/>
<path d="M5910 479 c0 -5 5 -7 10 -4 6 3 10 8 10 11 0 2 -4 4 -10 4 -5 0 -10
-5 -10 -11z"/>
<path d="M10852 478 c-18 -5 -30 -13 -27 -18 10 -16 55 -11 62 5 8 22 3 23
-35 13z"/>
<path d="M3046 454 c-9 -23 4 -41 32 -47 58 -11 112 17 84 45 -16 16 -110 17
-116 2z"/>
<path d="M3645 441 c-6 -5 -26 -14 -46 -20 -20 -6 -47 -23 -59 -36 -33 -35
-16 -49 47 -40 40 5 53 12 67 36 9 16 26 34 38 40 17 9 18 13 7 20 -18 11 -42
11 -54 0z"/>
<path d="M5950 434 c0 -8 5 -12 10 -9 6 4 8 11 5 16 -9 14 -15 11 -15 -7z"/>
<path d="M9002 424 c-30 -21 -28 -34 7 -34 28 0 47 22 35 41 -7 13 -16 11 -42
-7z"/>
<path d="M2730 386 c0 -9 7 -16 16 -16 9 0 14 5 12 12 -6 18 -28 21 -28 4z"/>
<path d="M3359 372 c-10 -15 -19 -17 -53 -12 -22 4 -49 11 -58 14 -11 5 -20 1
-28 -14 -18 -33 5 -54 50 -46 70 11 75 11 73 -1 -5 -21 22 -15 45 10 26 27 28
52 6 61 -22 8 -22 8 -35 -12z m-59 -36 c0 -3 -4 -8 -10 -11 -5 -3 -10 -1 -10
4 0 6 5 11 10 11 6 0 10 -2 10 -4z"/>
<path d="M2690 365 c0 -8 4 -15 10 -15 5 0 7 7 4 15 -4 8 -8 15 -10 15 -2 0
-4 -7 -4 -15z"/>
<path d="M797 354 c-9 -9 4 -35 14 -28 5 3 9 12 9 20 0 14 -12 19 -23 8z"/>
<path d="M2090 350 c0 -5 5 -10 10 -10 6 0 10 5 10 10 0 6 -4 10 -10 10 -5 0
-10 -4 -10 -10z"/>
<path d="M3510 311 c0 -11 31 -24 39 -16 3 3 -1 10 -9 15 -19 12 -30 12 -30 1z"/>
<path d="M5965 269 c-4 -6 -1 -15 6 -20 21 -13 31 -11 27 8 -4 20 -24 28 -33
12z"/>
<path d="M6040 220 c0 -5 5 -10 10 -10 6 0 10 5 10 10 0 6 -4 10 -10 10 -5 0
-10 -4 -10 -10z"/>
</g>
</svg>
